# xmcd
#
# Track frame offsets:
#  150
#  21735
#  40677
#  61965
#  73932
#  95602
#  114265
#  132250
#  146137
#  167255
#  183417
#
# Disc length: 2725 seconds
#
# Revision: 0
# Processed by: cddbd v1.4b41PL3 Copyright (c) Steve Scherf et al.
# Submitted via: AltoMP3 Maker 3.0
#
DISCID=9c0aa30b
DTITLE=Lorrie Morgan - Secret love
DYEAR=1900
DGENRE=
TTITLE0=once upon a time
TTITLE1=here's that rainy day
TTITLE2=good morning heartache
TTITLE3=i've got the world on a string
TTITLE4=secret love
TTITLE5=my foolish heart
TTITLE6=summer of '42
TTITLE7=they can't take that away from me
TTITLE8=i wish you love
TTITLE9=fly me to the moon
TTITLE10=an affiar to remember
EXTD=
EXTT0=
EXTT1=
EXTT2=
EXTT3=
EXTT4=
EXTT5=
EXTT6=
EXTT7=
EXTT8=
EXTT9=
EXTT10=
PLAYORDER=
